<svg width="39" height="35" viewBox="0 0 39 35" fill="none" xmlns="http://www.w3.org/2000/svg">
<path d="M36.2963 0H6.48149C5.04964 0 3.88889 1.16075 3.88889 2.59259V23.3334H0.648149C0.290209 23.3334 0 23.6236 0 23.9815C0 25.4133 1.16075 26.5741 2.59259 26.5741H21.3889V34.3519C21.389 34.7098 21.6792 34.9999 22.0372 34.9999C22.2091 34.9999 22.3738 34.9316 22.4953 34.8101L25.9259 31.3795L29.3566 34.8101C29.4781 34.9316 29.6429 35 29.8148 35C29.9001 35.0003 29.9844 34.9836 30.0631 34.9508C30.3052 34.8504 30.4631 34.614 30.463 34.3519V26.5741H32.4074C33.8393 26.5741 35 25.4133 35 23.9815V3.24074H38.2408C38.5987 3.24074 38.8889 2.95053 38.8889 2.59259C38.8889 1.16075 37.7282 0 36.2963 0ZM33.7037 2.59259V23.3334H31.1111V24.6296H33.5294C33.2979 25.0305 32.8703 25.2776 32.4074 25.2778H30.463V24.6296H29.1667V32.7872L26.3842 30.0047C26.1311 29.7517 25.7208 29.7517 25.4677 30.0047L22.6852 32.7872V24.6296H21.3889V25.2778H2.59259C2.12974 25.2776 1.70212 25.0305 1.47065 24.6296H4.53704H20.7408V23.3334H5.18519V2.59259C5.18519 1.87663 5.76553 1.2963 6.48149 1.2963H34.0641C33.8308 1.68867 33.7064 2.13614 33.7037 2.59259ZM35.1744 1.94445C35.533 1.32482 36.326 1.1132 36.9457 1.47186C37.1418 1.58537 37.3048 1.74838 37.4183 1.94445H35.1744Z" fill="#65C466"/>
<path d="M32.0355 20.2837L31.2053 18.7962L32.0388 17.31C32.2144 16.998 32.104 16.6028 31.7922 16.4272C31.7765 16.4183 31.7603 16.4101 31.7439 16.4025L30.1968 15.6941L29.9971 14.0025C29.9549 13.647 29.6325 13.3931 29.277 13.4353C29.2605 13.4373 29.2441 13.4399 29.2278 13.4431L27.5568 13.7743L26.4012 12.5227C26.1425 12.26 25.7198 12.2567 25.4571 12.5154C25.4546 12.5178 25.4521 12.5203 25.4497 12.5227L24.2941 13.7743L22.6231 13.4431C22.272 13.3737 21.931 13.6021 21.8616 13.9532C21.8583 13.9695 21.8557 13.9859 21.8538 14.0025L21.6542 15.6941L20.107 16.4038C19.7816 16.5528 19.6385 16.9375 19.7875 17.263C19.795 17.2794 19.8032 17.2955 19.8121 17.3113L20.6456 18.7962L19.8121 20.2824C19.6365 20.5943 19.7469 20.9895 20.0587 21.1651C20.0745 21.174 20.0906 21.1822 20.107 21.1898L21.6542 21.8995L21.8538 23.5925C21.896 23.9479 22.2184 24.2018 22.5739 24.1596C22.5904 24.1576 22.6068 24.1551 22.6231 24.1518L24.2941 23.8206L25.4497 25.0722C25.6928 25.3349 26.1029 25.3508 26.3656 25.1078C26.3779 25.0963 26.3898 25.0845 26.4012 25.0722L27.5568 23.8206L29.2278 24.1518C29.4049 24.188 29.589 24.1475 29.7346 24.0403C29.8795 23.9335 29.9734 23.7713 29.9939 23.5925L30.1935 21.9008L31.7406 21.1911C32.0661 21.0421 32.2092 20.6574 32.0602 20.332C32.0526 20.3155 32.0444 20.2994 32.0355 20.2837ZM29.8973 19.1125L30.5643 20.3025L29.325 20.8709C29.1195 20.9652 28.9781 21.1597 28.9517 21.3842L28.7922 22.7408L27.4525 22.4757C27.2317 22.4298 27.0032 22.5037 26.851 22.6701L25.9255 23.6735L24.9999 22.6714C24.8772 22.5388 24.7048 22.4634 24.5242 22.4634C24.4819 22.4631 24.4397 22.4675 24.3984 22.4764L23.0587 22.7414L22.8992 21.3849C22.8728 21.1604 22.7314 20.9658 22.5259 20.8715L21.2867 20.3031L21.9536 19.1131C22.0651 18.9154 22.0678 18.6754 21.9536 18.4792V18.4818L21.2867 17.2918L22.5259 16.7234C22.7314 16.6291 22.8728 16.4346 22.8992 16.21L23.0587 14.8535L24.3984 15.1186C24.6191 15.1639 24.8474 15.09 24.9999 14.9241L25.9255 13.9188L26.851 14.9209C27.0031 15.0874 27.2317 15.1613 27.4525 15.1153L28.7922 14.8502L28.9517 16.2068C28.9781 16.4313 29.1195 16.6258 29.325 16.7201L30.5643 17.2886L29.8973 18.4786C29.787 18.6754 29.787 18.9156 29.8973 19.1125Z" fill="#65C466"/>
<path d="M25.9263 15.5557C24.1365 15.5557 22.6855 17.0066 22.6855 18.7964C22.6877 20.5853 24.1374 22.035 25.9263 22.0372C27.7161 22.0372 29.167 20.5862 29.167 18.7964C29.167 17.0066 27.7161 15.5557 25.9263 15.5557ZM25.9263 20.7409C24.8524 20.7409 23.9818 19.8703 23.9818 18.7964C23.9818 17.7225 24.8524 16.852 25.9263 16.852C27.0002 16.852 27.8707 17.7225 27.8707 18.7964C27.8707 19.8703 27.0002 20.7409 25.9263 20.7409Z" fill="#65C466"/>
<path d="M24.6301 3.88892H14.2598V5.18521H24.6301V3.88892Z" fill="#65C466"/>
<path d="M31.1107 7.77759H7.77734V9.07389H31.1107V7.77759Z" fill="#65C466"/>
<path d="M31.1107 10.3704H7.77734V11.6667H31.1107V10.3704Z" fill="#65C466"/>
<path d="M16.8517 18.7964H8.42578V20.0927H16.8517V18.7964Z" fill="#65C466"/>
</svg>
