<svg width="28" height="25" viewBox="0 0 28 25" fill="none" xmlns="http://www.w3.org/2000/svg">
<path d="M25.8267 0.359863H5.14455C4.1513 0.359863 3.34611 1.16506 3.34611 2.15831V16.5459H1.09805C0.849751 16.5459 0.648438 16.7472 0.648438 16.9955C0.648438 17.9887 1.45364 18.7939 2.44688 18.7939H15.4856V24.1893C15.4857 24.4376 15.687 24.6388 15.9353 24.6388C16.0545 24.6388 16.1688 24.5914 16.2531 24.5071L18.6329 22.1274L21.0127 24.5071C21.097 24.5914 21.2113 24.6389 21.3306 24.6389C21.3897 24.6391 21.4482 24.6275 21.5028 24.6047C21.6708 24.5351 21.7802 24.3711 21.7802 24.1893V18.7939H23.129C24.1223 18.7939 24.9275 17.9887 24.9275 16.9955V2.60792H27.1755C27.4238 2.60792 27.6251 2.40661 27.6251 2.15831C27.6251 1.16506 26.8199 0.359863 25.8267 0.359863ZM24.0282 2.15831V16.5459H22.2298V17.4451H23.9073C23.7467 17.7232 23.4501 17.8945 23.129 17.8947H21.7802V17.4451H20.881V23.1039L18.9508 21.1737C18.7752 20.9982 18.4906 20.9982 18.315 21.1737L16.3848 23.1039V17.4451H15.4856V17.8947H2.44688C2.1258 17.8945 1.82917 17.7232 1.66861 17.4451H3.79572H15.036V16.5459H4.24533V2.15831C4.24533 1.66166 4.6479 1.25909 5.14455 1.25909H24.2782C24.1164 1.53127 24.0301 1.84167 24.0282 2.15831ZM25.0484 1.7087C25.2972 1.27887 25.8473 1.13207 26.2771 1.38087C26.4132 1.45961 26.5262 1.57269 26.605 1.7087H25.0484Z" fill="#65C466"/>
<path d="M22.8712 14.4306L22.2952 13.3987L22.8734 12.3677C22.9953 12.1514 22.9187 11.8772 22.7024 11.7554C22.6915 11.7492 22.6803 11.7435 22.6689 11.7383L21.5957 11.2469L21.4572 10.0734C21.4279 9.82681 21.2042 9.65068 20.9577 9.67996C20.9462 9.68131 20.9348 9.6831 20.9235 9.68535L19.7644 9.91511L18.9627 9.0469C18.7833 8.86464 18.4901 8.86234 18.3078 9.04179C18.3061 9.04348 18.3044 9.04522 18.3027 9.0469L17.501 9.91511L16.3419 9.68535C16.0984 9.63719 15.8618 9.79562 15.8136 10.0392C15.8114 10.0505 15.8096 10.0619 15.8083 10.0734L15.6698 11.2469L14.5965 11.7392C14.3708 11.8425 14.2715 12.1094 14.3749 12.3351C14.3801 12.3465 14.3858 12.3577 14.392 12.3686L14.9702 13.3987L14.392 14.4297C14.2701 14.646 14.3467 14.9202 14.5631 15.042C14.574 15.0482 14.5851 15.0539 14.5965 15.0591L15.6698 15.5514L15.8083 16.7258C15.8375 16.9724 16.0612 17.1485 16.3078 17.1192C16.3192 17.1179 16.3306 17.1161 16.3419 17.1138L17.501 16.8841L18.3027 17.7523C18.4714 17.9345 18.7558 17.9456 18.9381 17.777C18.9466 17.769 18.9548 17.7608 18.9627 17.7523L19.7644 16.8841L20.9235 17.1138C21.0463 17.139 21.1741 17.1109 21.2751 17.0365C21.3756 16.9624 21.4407 16.8499 21.4549 16.7258L21.5934 15.5523L22.6666 15.06C22.8924 14.9567 22.9916 14.6898 22.8883 14.464C22.8831 14.4526 22.8773 14.4415 22.8712 14.4306ZM21.3879 13.6181L21.8506 14.4436L20.9909 14.8379C20.8484 14.9033 20.7503 15.0383 20.7319 15.194L20.6213 16.135L19.692 15.9511C19.5388 15.9193 19.3803 15.9706 19.2748 16.086L18.6327 16.782L17.9907 16.0869C17.9056 15.9949 17.786 15.9426 17.6607 15.9426C17.6313 15.9424 17.6021 15.9455 17.5734 15.9516L16.6441 16.1355L16.5335 15.1944C16.5152 15.0387 16.417 14.9038 16.2745 14.8384L15.4148 14.444L15.8775 13.6186C15.9548 13.4814 15.9567 13.3149 15.8775 13.1788V13.1806L15.4148 12.3551L16.2745 11.9608C16.417 11.8954 16.5152 11.7605 16.5335 11.6047L16.6441 10.6637L17.5734 10.8476C17.7265 10.879 17.8849 10.8278 17.9907 10.7127L18.6327 10.0154L19.2748 10.7105C19.3802 10.826 19.5388 10.8772 19.692 10.8454L20.6213 10.6615L20.7319 11.6025C20.7503 11.7582 20.8484 11.8932 20.9909 11.9586L21.8506 12.3529L21.3879 13.1784C21.3114 13.315 21.3114 13.4815 21.3879 13.6181Z" fill="#65C466"/>
<path d="M18.6323 11.1506C17.3908 11.1506 16.3843 12.1571 16.3843 13.3987C16.3857 14.6396 17.3914 15.6452 18.6323 15.6467C19.8739 15.6467 20.8804 14.6402 20.8804 13.3987C20.8804 12.1571 19.8739 11.1506 18.6323 11.1506ZM18.6323 14.7475C17.8874 14.7475 17.2835 14.1436 17.2835 13.3987C17.2835 12.6537 17.8874 12.0499 18.6323 12.0499C19.3773 12.0499 19.9812 12.6537 19.9812 13.3987C19.9812 14.1436 19.3773 14.7475 18.6323 14.7475Z" fill="#65C466"/>
<path d="M17.7338 3.05762H10.54V3.95684H17.7338V3.05762Z" fill="#65C466"/>
<path d="M22.23 5.75513H6.04395V6.65435H22.23V5.75513Z" fill="#65C466"/>
<path d="M22.23 7.55371H6.04395V8.45293H22.23V7.55371Z" fill="#65C466"/>
<path d="M12.3376 13.3987H6.49268V14.2979H12.3376V13.3987Z" fill="#65C466"/>
</svg>
