<svg width="16" height="17" viewBox="0 0 16 17" fill="none" xmlns="http://www.w3.org/2000/svg">
<path d="M11.4378 16.2997C10.9241 16.2997 10.4147 16.2088 9.91664 16.0279C7.72241 15.2308 5.6857 13.9326 4.02662 12.2735C2.36754 10.6145 1.0693 8.57771 0.272243 6.38349C0.0161082 5.67833 -0.0594797 4.95042 0.047655 4.2199C0.148014 3.53563 0.413069 2.87135 0.814195 2.29885C1.21709 1.72382 1.75423 1.24556 2.36751 0.915759C3.02151 0.564083 3.73533 0.385742 4.48923 0.385742C4.7237 0.385742 4.92634 0.549568 4.97548 0.778818L5.75604 4.42143C5.79138 4.58638 5.74068 4.758 5.62143 4.87729L4.28767 6.21102C5.54587 8.71257 7.58749 10.7542 10.089 12.0124L11.4228 10.6786C11.542 10.5594 11.7137 10.5087 11.8786 10.544L15.5212 11.3246C15.7505 11.3737 15.9143 11.5764 15.9143 11.8108C15.9143 12.5647 15.736 13.2786 15.3843 13.9326C15.0545 14.5459 14.5762 15.083 14.0012 15.4859C13.4287 15.887 12.7644 16.1521 12.0801 16.2524C11.8657 16.2839 11.6513 16.2996 11.4378 16.2997ZM4.09189 1.40208C3.09747 1.51185 2.21484 2.03308 1.62872 2.86961C0.969629 3.81026 0.815936 4.96724 1.20705 6.04393C2.73945 10.2624 6.03775 13.5607 10.2562 15.0931C11.3329 15.4842 12.4899 15.3305 13.4305 14.6714C14.2671 14.0853 14.7883 13.2027 14.8981 12.2082L11.9348 11.5733L10.5419 12.9662C10.3937 13.1144 10.1685 13.1538 9.9788 13.0646C7.02024 11.6747 4.62542 9.27989 3.2355 6.32133C3.14639 6.13164 3.18574 5.90643 3.33396 5.75824L4.72687 4.36533L4.09189 1.40208Z" fill="#C2C1C2"/>
<path d="M15.4171 8.83942C15.1424 8.83942 14.9198 8.61675 14.9198 8.34213C14.9198 4.50324 11.7966 1.38008 7.95774 1.38008C7.68311 1.38008 7.46045 1.15742 7.46045 0.882787C7.46045 0.608159 7.68311 0.385498 7.95774 0.385498C10.0831 0.385498 12.0811 1.21311 13.5839 2.71592C15.0868 4.21873 15.9144 6.21681 15.9144 8.34213C15.9144 8.61675 15.6917 8.83942 15.4171 8.83942Z" fill="#C2C1C2"/>
<path d="M13.4279 8.83927C13.1533 8.83927 12.9306 8.61661 12.9306 8.34198C12.9306 5.59993 10.6998 3.36909 7.95774 3.36909C7.68311 3.36909 7.46045 3.14643 7.46045 2.8718C7.46045 2.59717 7.68311 2.37451 7.95774 2.37451C11.2482 2.37451 13.9252 5.05151 13.9252 8.34198C13.9252 8.61661 13.7026 8.83927 13.4279 8.83927Z" fill="#C2C1C2"/>
<path d="M11.4388 8.83937C11.1641 8.83937 10.9415 8.61671 10.9415 8.34208C10.9415 6.69683 9.60299 5.35835 7.95774 5.35835C7.68311 5.35835 7.46045 5.13569 7.46045 4.86106C7.46045 4.58643 7.68311 4.36377 7.95774 4.36377C10.1514 4.36377 11.9361 6.14842 11.9361 8.34208C11.9361 8.61671 11.7134 8.83937 11.4388 8.83937Z" fill="#C2C1C2"/>
</svg>
