<svg width="26" height="26" viewBox="0 0 26 26" fill="none" xmlns="http://www.w3.org/2000/svg">
<path d="M12.9482 0.384521C6.08619 0.384521 0.523438 5.94728 0.523438 12.8093C0.523438 19.6713 6.08619 25.234 12.9482 25.234C19.8102 25.234 25.3729 19.6713 25.3729 12.8093C25.3729 5.94728 19.8102 0.384521 12.9482 0.384521ZM18.9323 13.4033C18.9116 13.4262 18.8898 13.4481 18.8668 13.4687L9.99199 21.4561C9.62132 21.7767 9.06086 21.7363 8.74017 21.3656C8.42837 21.0053 8.45681 20.463 8.80454 20.1373L16.9463 12.8093L8.80454 5.48135C8.44683 5.14625 8.42852 4.58464 8.76362 4.22693C9.08941 3.8792 9.63167 3.85075 9.99199 4.16255L18.8668 12.1499C19.231 12.4779 19.2603 13.0391 18.9323 13.4033Z" fill="#65C466"/>
</svg>
