<svg width="25" height="26" viewBox="0 0 25 26" fill="none" xmlns="http://www.w3.org/2000/svg">
<path d="M12.4249 25.2339C19.2869 25.2339 24.8496 19.6711 24.8496 12.8091C24.8496 5.94713 19.2869 0.38438 12.4249 0.384379C5.56286 0.384379 0.000104683 5.94713 0.000104083 12.8091C0.000103483 19.6711 5.56281 25.2339 12.4249 25.2339ZM6.44079 12.2151C6.46144 12.1922 6.48328 12.1704 6.50621 12.1497L15.3811 4.16236C15.7517 3.84167 16.3122 3.88212 16.6329 4.25279C16.9447 4.61315 16.9162 5.15537 16.5685 5.48115L8.42671 12.8091L16.5685 20.1371C16.9262 20.4722 16.9445 21.0338 16.6094 21.3915C16.2836 21.7392 15.7414 21.7677 15.3811 21.4559L6.50621 13.4685C6.14205 13.1405 6.11277 12.5793 6.44079 12.2151Z" fill="white"/>
</svg>
