<svg width="34" height="34" viewBox="0 0 34 34" fill="none" xmlns="http://www.w3.org/2000/svg">
<path d="M17.0001 16.3489C19.1971 16.3489 20.9844 14.5615 20.9844 12.3645C20.9844 10.1675 19.1971 8.38013 17.0001 8.38013C14.8031 8.38013 13.0156 10.1675 13.0156 12.3645C13.0156 14.5615 14.8031 16.3489 17.0001 16.3489ZM17.0001 10.3723C18.0986 10.3723 18.9922 11.266 18.9922 12.3645C18.9922 13.463 18.0986 14.3567 17.0001 14.3567C15.9016 14.3567 15.0078 13.463 15.0078 12.3645C15.0078 11.266 15.9016 10.3723 17.0001 10.3723Z" fill="#65C466"/>
<path d="M29.6741 22.9102H23.0075C26.1204 19.9388 28.9528 17.0262 28.9528 11.9531C28.9528 5.1178 23.8203 0 16.9998 0C10.1656 0 5.04657 5.133 5.04657 11.9531C5.04657 17.0262 7.87906 19.9388 10.9921 22.9102H4.32533L0.682617 34H33.3168L29.6741 22.9102ZM7.03876 11.9531C7.03876 6.18136 11.228 1.99219 16.9998 1.99219C22.7715 1.99219 26.9606 6.18136 26.9606 11.9531C26.9606 18.4103 21.5103 20.6974 16.9998 26.2586C15.6443 24.5874 14.1947 23.2079 12.785 21.8667C9.57455 18.812 7.03876 16.3991 7.03876 11.9531ZM4.241 29.5508H11.4216V27.5586H4.89536L5.76788 24.9023H13.0153V24.8576C15.6613 27.4815 16.3772 28.7966 16.9998 29.5808C17.6379 28.7771 18.3303 27.4894 20.9841 24.8577V24.9023H28.2316L29.1041 27.5586H22.5778V29.5508H29.7584L30.5654 32.0078H3.43396L4.241 29.5508Z" fill="#65C466"/>
</svg>
