<svg width="25" height="25" viewBox="0 0 25 25" fill="none" xmlns="http://www.w3.org/2000/svg">
<g clip-path="url(#clip0_213_106)">
<path d="M12.5228 12.2326C14.0468 12.2326 15.2866 10.9928 15.2866 9.46874C15.2866 7.94472 14.0468 6.70483 12.5228 6.70483C10.9987 6.70483 9.75879 7.94472 9.75879 9.46874C9.75879 10.9928 10.9987 12.2326 12.5228 12.2326ZM12.5228 8.08679C13.2847 8.08679 13.9046 8.70673 13.9046 9.46874C13.9046 10.2307 13.2847 10.8507 12.5228 10.8507C11.7607 10.8507 11.1407 10.2307 11.1407 9.46874C11.1407 8.70673 11.7607 8.08679 12.5228 8.08679Z" fill="#65C466"/>
<path d="M21.3151 16.7841H16.6905C18.8499 14.7229 20.8147 12.7025 20.8147 9.18331C20.8147 4.44174 17.2544 0.891602 12.5231 0.891602C7.78229 0.891602 4.23131 4.45229 4.23131 9.18331C4.23131 12.7025 6.19617 14.7229 8.35561 16.7841H3.731L1.2041 24.4769H23.842L21.3151 16.7841ZM5.61327 9.18331C5.61327 5.17952 8.51928 2.27355 12.5231 2.27355C16.5269 2.27355 19.4328 5.17952 19.4328 9.18331C19.4328 13.6626 15.652 15.2491 12.5231 19.1068C11.5828 17.9475 10.5772 16.9906 9.59937 16.0602C7.37231 13.9412 5.61327 12.2674 5.61327 9.18331ZM3.6725 21.3906H8.65356V20.0086H4.12642L4.73167 18.166H9.75912V18.135C11.5946 19.9551 12.0912 20.8674 12.5231 21.4114C12.9657 20.8539 13.4461 19.9606 15.2869 18.135V18.166H20.3144L20.9197 20.0086H16.3925V21.3906H21.3736L21.9334 23.095H3.11267L3.6725 21.3906Z" fill="#65C466"/>
</g>
<defs>
<clipPath id="clip0_213_106">
<rect width="23.5853" height="23.5853" fill="white" transform="translate(0.730469 0.891602)"/>
</clipPath>
</defs>
</svg>
