<svg width="21" height="26" viewBox="0 0 21 26" fill="none" xmlns="http://www.w3.org/2000/svg">
<path d="M14.0184 3.61873C13.7717 1.88957 12.2666 0.585449 10.5175 0.585449C9.39273 0.585449 8.32447 1.12823 7.66028 2.03791C7.52461 2.22343 7.5652 2.48367 7.75072 2.61933C7.93563 2.75451 8.19648 2.71441 8.3319 2.52865C8.84031 1.83301 9.65723 1.4176 10.5174 1.4176C11.8551 1.4176 13.0058 2.41443 13.1945 3.73611C13.2243 3.94369 13.4024 4.09349 13.606 4.09349C13.6254 4.09349 13.6454 4.09203 13.6653 4.08935C13.8927 4.0568 14.0508 3.84605 14.0184 3.61873Z" fill="#65C466"/>
<path d="M20.0286 8.2762L18.7804 6.19587C18.7053 6.07044 18.5699 5.9939 18.4236 5.9939H17.2275C16.9979 5.9939 16.8115 6.18027 16.8115 6.40991C16.8115 6.63956 16.9979 6.82593 17.2275 6.82593H18.1881L18.937 8.0741H2.1L2.8489 6.82593H3.28954C3.51918 6.82593 3.70556 6.63956 3.70556 6.40991C3.70556 6.18027 3.51918 5.9939 3.28954 5.9939H2.61341C2.46714 5.9939 2.33172 6.07044 2.25663 6.19587L1.00846 8.2762C0.931301 8.40492 0.929473 8.56496 1.00322 8.69538C1.07696 8.82581 1.21519 8.9065 1.36524 8.9065H19.6718C19.8218 8.9065 19.9599 8.82581 20.0338 8.69538C20.1077 8.56496 20.1057 8.40467 20.0286 8.2762Z" fill="#65C466"/>
<path d="M17.9546 4.44002C17.8964 4.34605 17.8034 4.27937 17.6958 4.25426L12.0241 2.92771C11.9167 2.90248 11.8036 2.92125 11.7097 2.97927C11.6161 3.03754 11.5493 3.13054 11.5242 3.23805L11.0965 5.06643C11.0441 5.2901 11.183 5.51389 11.4068 5.56606C11.6305 5.61847 11.8546 5.47952 11.9067 5.25572L12.2397 3.83264L17.1011 4.96977L16.3372 8.23586C16.2848 8.45953 16.4238 8.68332 16.6476 8.73549C16.6796 8.74292 16.7114 8.74646 16.7429 8.74646C16.9318 8.74646 17.1028 8.61701 17.1473 8.42528L18.0061 4.75414C18.0314 4.64675 18.0129 4.53364 17.9546 4.44002Z" fill="#65C466"/>
<path d="M10.7379 5.42329L10.3588 2.21693C10.3459 2.10735 10.2899 2.00727 10.2032 1.93901C10.1164 1.87075 10.0068 1.83955 9.89672 1.85247L2.93792 2.67499C2.70986 2.70205 2.54677 2.90878 2.57371 3.13709L3.20572 8.48484C3.23083 8.69657 3.41038 8.85222 3.61845 8.85222C3.63466 8.85222 3.65136 8.85113 3.66793 8.8493C3.89587 8.82224 4.05896 8.61551 4.03215 8.38721L3.44889 3.4523L9.58139 2.72753L9.91147 5.52068C9.93853 5.74886 10.1443 5.91098 10.3736 5.88514C10.6016 5.85832 10.7647 5.65147 10.7379 5.42329Z" fill="#65C466"/>
<path d="M14.0282 8.33222L13.2024 4.89804C13.1765 4.7909 13.1091 4.69814 13.0151 4.64048C12.9212 4.58331 12.8084 4.5654 12.7005 4.59099L5.99808 6.20289C5.77466 6.25652 5.63716 6.48129 5.6908 6.70472L6.10352 8.4212C6.15715 8.64487 6.38192 8.78248 6.60523 8.72849C6.82866 8.67485 6.96615 8.45009 6.91252 8.22666L6.59694 6.91462L12.4904 5.4975L13.219 8.527C13.2647 8.71776 13.4353 8.84575 13.6231 8.84575C13.6554 8.84575 13.6881 8.84197 13.7209 8.83404C13.9443 8.78029 14.0818 8.55564 14.0282 8.33222Z" fill="#65C466"/>
<path d="M20.0868 8.46915C20.0753 8.24804 19.8927 8.07446 19.6711 8.07446H1.36456C1.14297 8.07446 0.960372 8.24791 0.948914 8.46915L0.116759 24.6954C0.110908 24.8092 0.152108 24.9206 0.230606 25.0033C0.309226 25.0858 0.418197 25.1327 0.532288 25.1327H20.503C20.617 25.1327 20.7261 25.0859 20.8051 25.0033C20.8835 24.9206 20.9247 24.8093 20.9189 24.6954L20.0868 8.46915ZM0.970123 24.3006L1.75962 8.9065H19.2756L20.0651 24.3006H0.970123Z" fill="#65C466"/>
<path d="M13.6383 9.73853C12.95 9.73853 12.3901 10.2984 12.3901 10.9867C12.3901 11.675 12.95 12.2349 13.6383 12.2349C14.3266 12.2349 14.8865 11.675 14.8865 10.9867C14.8865 10.2984 14.3266 9.73853 13.6383 9.73853ZM13.6383 11.4028C13.4088 11.4028 13.2223 11.2162 13.2223 10.9868C13.2223 10.7574 13.4089 10.5708 13.6383 10.5708C13.8677 10.5708 14.0543 10.7574 14.0543 10.9868C14.0543 11.2162 13.8677 11.4028 13.6383 11.4028Z" fill="#65C466"/>
<path d="M7.39759 9.73853C6.70926 9.73853 6.14941 10.2984 6.14941 10.9867C6.14941 11.675 6.70926 12.2349 7.39759 12.2349C8.08591 12.2349 8.64576 11.675 8.64576 10.9867C8.64576 10.2984 8.08591 9.73853 7.39759 9.73853ZM7.39759 11.4028C7.16819 11.4028 6.98157 11.2162 6.98157 10.9868C6.98157 10.7574 7.16819 10.5708 7.39759 10.5708C7.62699 10.5708 7.8136 10.7574 7.8136 10.9868C7.8136 11.2162 7.62699 11.4028 7.39759 11.4028Z" fill="#65C466"/>
<path d="M13.6388 10.9866H13.6068C13.3771 10.9866 13.1907 11.1729 13.1907 11.4026C13.1907 11.4594 13.2019 11.5136 13.2228 11.563V13.6909C13.2228 15.182 12.0096 16.3953 10.5184 16.3953C9.02716 16.3953 7.81397 15.1821 7.81397 13.6909V11.4027C7.81397 11.1731 7.62759 10.9867 7.39795 10.9867C7.16831 10.9867 6.98193 11.1731 6.98193 11.4027V13.691C6.98193 15.641 8.56835 17.2274 10.5184 17.2274C12.4684 17.2274 14.0548 15.641 14.0548 13.691V11.4027C14.0548 11.1731 13.8685 10.9866 13.6388 10.9866Z" fill="#65C466"/>
</svg>
