<svg width="30" height="36" viewBox="0 0 30 36" fill="none" xmlns="http://www.w3.org/2000/svg">
<path d="M20.0411 4.37269C19.6854 1.87999 17.5157 0 14.9943 0C13.3728 0 11.8329 0.782464 10.8754 2.09383C10.6798 2.36127 10.7383 2.73643 11.0058 2.932C11.2723 3.12687 11.6484 3.06906 11.8436 2.80127C12.5765 1.79845 13.7541 1.19961 14.9942 1.19961C16.9225 1.19961 18.5814 2.63662 18.8534 4.54191C18.8963 4.84115 19.153 5.05711 19.4466 5.05711C19.4746 5.05711 19.5034 5.055 19.532 5.05113C19.8599 5.00422 20.0878 4.70041 20.0411 4.37269Z" fill="#65C466"/>
<path d="M28.7035 11.087L26.9042 8.08804C26.796 7.90722 26.6007 7.79688 26.3899 7.79688H24.6656C24.3345 7.79688 24.0659 8.06554 24.0659 8.39659C24.0659 8.72764 24.3345 8.99631 24.6656 8.99631H26.0504L27.13 10.7956H2.85816L3.93775 8.99631H4.57297C4.90402 8.99631 5.17269 8.72764 5.17269 8.39659C5.17269 8.06554 4.90402 7.79688 4.57297 7.79688H3.59827C3.38741 7.79688 3.19219 7.90722 3.08395 8.08804L1.28462 11.087C1.17339 11.2725 1.17075 11.5033 1.27706 11.6913C1.38337 11.8793 1.58263 11.9956 1.79894 11.9956H28.1892C28.4055 11.9956 28.6046 11.8793 28.7111 11.6913C28.8176 11.5033 28.8148 11.2722 28.7035 11.087Z" fill="#65C466"/>
<path d="M25.714 5.55676C25.63 5.42128 25.4959 5.32516 25.3409 5.28897L17.1647 3.37665C17.0099 3.34027 16.8468 3.36733 16.7115 3.45098C16.5765 3.53497 16.4802 3.66904 16.4441 3.82402L15.8275 6.45976C15.7519 6.7822 15.9522 7.10482 16.2748 7.18002C16.5973 7.25558 16.9202 7.05526 16.9954 6.73265L17.4755 4.68116L24.4836 6.32042L23.3824 11.0287C23.3068 11.3512 23.5071 11.6738 23.8298 11.749C23.876 11.7597 23.9218 11.7648 23.9672 11.7648C24.2395 11.7648 24.486 11.5782 24.5502 11.3018L25.7881 6.00958C25.8247 5.85477 25.7979 5.69171 25.714 5.55676Z" fill="#65C466"/>
<path d="M15.3116 6.97448L14.7651 2.35227C14.7465 2.1943 14.6658 2.05004 14.5407 1.95164C14.4156 1.85323 14.2576 1.80825 14.099 1.82688L4.06732 3.01261C3.73856 3.05162 3.50345 3.34963 3.54228 3.67875L4.45337 11.3879C4.48957 11.6932 4.7484 11.9175 5.04834 11.9175C5.07171 11.9175 5.09579 11.916 5.11968 11.9133C5.44827 11.8743 5.68338 11.5763 5.64472 11.2472L4.80392 4.13315L13.6444 3.08834L14.1202 7.11488C14.1592 7.44382 14.4558 7.67752 14.7864 7.64027C15.1151 7.60161 15.3502 7.30342 15.3116 6.97448Z" fill="#65C466"/>
<path d="M20.0552 11.1677L18.8648 6.21713C18.8275 6.06267 18.7303 5.92895 18.5949 5.84584C18.4594 5.76343 18.2968 5.7376 18.1413 5.7745L8.47923 8.09817C8.15714 8.17548 7.95893 8.4995 8.03625 8.82159L8.63122 11.296C8.70854 11.6185 9.03256 11.8168 9.35447 11.739C9.67656 11.6617 9.87477 11.3377 9.79745 11.0156L9.34252 9.12417L17.8384 7.0813L18.8886 11.4485C18.9545 11.7235 19.2005 11.908 19.4713 11.908C19.5179 11.908 19.565 11.9026 19.6122 11.8912C19.9343 11.8137 20.1325 11.4898 20.0552 11.1677Z" fill="#65C466"/>
<path d="M28.7891 11.3651C28.7725 11.0464 28.5093 10.7961 28.1899 10.7961H1.7996C1.48014 10.7961 1.21692 11.0462 1.2004 11.3651L0.000790035 34.7564C-0.00764434 34.9206 0.0517479 35.0812 0.164909 35.2003C0.278246 35.3193 0.435336 35.3869 0.599806 35.3869H29.3891C29.5534 35.3869 29.7107 35.3194 29.8246 35.2003C29.9375 35.0812 29.9969 34.9207 29.9887 34.7564L28.7891 11.3651ZM1.23098 34.1873L2.36909 11.9956H27.6197L28.7578 34.1873H1.23098Z" fill="#65C466"/>
<path d="M19.4927 13.1951C18.5004 13.1951 17.6934 14.0021 17.6934 14.9944C17.6934 15.9867 18.5004 16.7937 19.4927 16.7937C20.485 16.7937 21.292 15.9867 21.292 14.9944C21.292 14.0021 20.485 13.1951 19.4927 13.1951ZM19.4927 15.5943C19.1618 15.5943 18.893 15.3253 18.893 14.9946C18.893 14.6639 19.162 14.3949 19.4927 14.3949C19.8234 14.3949 20.0924 14.6639 20.0924 14.9946C20.0924 15.3253 19.8234 15.5943 19.4927 15.5943Z" fill="#65C466"/>
<path d="M10.4966 13.1951C9.50433 13.1951 8.69727 14.0021 8.69727 14.9944C8.69727 15.9867 9.50433 16.7937 10.4966 16.7937C11.4889 16.7937 12.2959 15.9867 12.2959 14.9944C12.2959 14.0021 11.4889 13.1951 10.4966 13.1951ZM10.4966 15.5943C10.1659 15.5943 9.89688 15.3253 9.89688 14.9946C9.89688 14.6639 10.1659 14.3949 10.4966 14.3949C10.8273 14.3949 11.0963 14.6639 11.0963 14.9946C11.0963 15.3253 10.8273 15.5943 10.4966 15.5943Z" fill="#65C466"/>
<path d="M19.4929 14.9944H19.4467C19.1156 14.9944 18.8469 15.2631 18.8469 15.5941C18.8469 15.676 18.8631 15.7542 18.8931 15.8253V18.8928C18.8931 21.0424 17.1442 22.7914 14.9945 22.7914C12.8448 22.7914 11.0959 21.0425 11.0959 18.8928V15.5943C11.0959 15.2632 10.8273 14.9946 10.4962 14.9946C10.1652 14.9946 9.89648 15.2632 9.89648 15.5943V18.893C9.89648 21.7041 12.1834 23.991 14.9945 23.991C17.8056 23.991 20.0926 21.7041 20.0926 18.893V15.5943C20.0926 15.2632 19.8239 14.9944 19.4929 14.9944Z" fill="#65C466"/>
</svg>
