<svg width="29" height="21" viewBox="0 0 29 21" fill="none" xmlns="http://www.w3.org/2000/svg">
<path d="M7.18341 14.8298C5.63887 14.8298 4.38281 16.0859 4.38281 17.6304C4.38281 19.175 5.63887 20.431 7.18341 20.431C8.72795 20.431 9.98401 19.175 9.98401 17.6304C9.98401 16.0859 8.7279 14.8298 7.18341 14.8298ZM7.18341 19.4975C6.1537 19.4975 5.31636 18.6601 5.31636 17.6304C5.31636 16.6007 6.15375 15.7634 7.18341 15.7634C8.21307 15.7634 9.05046 16.6008 9.05046 17.6304C9.05046 18.6601 8.21307 19.4975 7.18341 19.4975Z" fill="#65C466"/>
<path d="M23.053 14.8298C21.5085 14.8298 20.2524 16.0859 20.2524 17.6304C20.2524 19.175 21.5085 20.431 23.053 20.431C24.5976 20.431 25.8536 19.175 25.8536 17.6304C25.8536 16.0859 24.5976 14.8298 23.053 14.8298ZM23.053 19.4975C22.0233 19.4975 21.186 18.6601 21.186 17.6304C21.186 16.6007 22.0234 15.7634 23.053 15.7634C24.0828 15.7634 24.9201 16.6008 24.9201 17.6304C24.9201 18.6601 24.0828 19.4975 23.053 19.4975Z" fill="#65C466"/>
<path d="M28.5809 12.2436L24.38 5.70889C24.2941 5.57537 24.1461 5.49463 23.9874 5.49463H18.853C18.5949 5.49463 18.3862 5.70374 18.3862 5.96138V17.6305C18.3862 17.8887 18.5949 18.0973 18.853 18.0973H20.72V17.1637H19.3197V6.42818H23.7325L27.7215 12.6334V17.1638H25.3877V18.0973H28.1883C28.4464 18.0973 28.655 17.8887 28.655 17.6306V12.4961C28.6551 12.407 28.6294 12.3187 28.5809 12.2436Z" fill="#65C466"/>
<path d="M21.1859 11.5625V8.29512H24.9201V7.36157H20.7192C20.4611 7.36157 20.2524 7.57069 20.2524 7.82832V12.0292C20.2524 12.2873 20.4611 12.496 20.7192 12.496H27.7207V11.5624H21.1859V11.5625Z" fill="#65C466"/>
<path d="M18.8523 2.24536H1.11519C0.857553 2.24536 0.648438 2.45448 0.648438 2.71211V17.6487C0.648438 17.9068 0.857553 18.1154 1.11519 18.1154H4.84934V17.1819H1.58199V3.17886H18.3856V17.1819H9.51699V18.1154H18.8523C19.1105 18.1154 19.3191 17.9068 19.3191 17.6487V2.71211C19.3191 2.45448 19.1105 2.24536 18.8523 2.24536Z" fill="#65C466"/>
<path d="M3.91583 15.2966H1.11523V16.2302H3.91583V15.2966Z" fill="#65C466"/>
<path d="M18.3857 15.2966H10.4507V16.2302H18.3857V15.2966Z" fill="#65C466"/>
<path d="M28.1883 15.2966H26.3213V16.2302H28.1883V15.2966Z" fill="#65C466"/>
<path d="M18.853 4.09424H2.51611V5.02779H18.853V4.09424Z" fill="#65C466"/>
<path d="M7.64986 17.1636H6.71631V18.0971H7.64986V17.1636Z" fill="#65C466"/>
<path d="M23.52 17.1636H22.5864V18.0971H23.52V17.1636Z" fill="#65C466"/>
<path d="M9.05086 0.359863H2.51611V1.29341H9.05086V0.359863Z" fill="#65C466"/>
<path d="M1.58199 0.359863H0.648438V1.29341H1.58199V0.359863Z" fill="#65C466"/>
</svg>
