<svg width="41" height="29" viewBox="0 0 41 29" fill="none" xmlns="http://www.w3.org/2000/svg">
<path d="M9.42009 20.8594C7.19351 20.8594 5.38281 22.6701 5.38281 24.8967C5.38281 27.1232 7.19351 28.9339 9.42009 28.9339C11.6467 28.9339 13.4574 27.1232 13.4574 24.8967C13.4574 22.6701 11.6466 20.8594 9.42009 20.8594ZM9.42009 27.5881C7.93568 27.5881 6.7286 26.381 6.7286 24.8967C6.7286 23.4122 7.93576 22.2052 9.42009 22.2052C10.9044 22.2052 12.1116 23.4123 12.1116 24.8967C12.1116 26.381 10.9044 27.5881 9.42009 27.5881Z" fill="#65C466"/>
<path d="M32.298 20.8594C30.0714 20.8594 28.2607 22.6701 28.2607 24.8967C28.2607 27.1232 30.0714 28.9339 32.298 28.9339C34.5246 28.9339 36.3353 27.1232 36.3353 24.8967C36.3353 22.6701 34.5246 20.8594 32.298 20.8594ZM32.298 27.5881C30.8136 27.5881 29.6065 26.381 29.6065 24.8967C29.6065 23.4122 30.8137 22.2052 32.298 22.2052C33.7824 22.2052 34.9895 23.4123 34.9895 24.8967C34.9895 26.381 33.7824 27.5881 32.298 27.5881Z" fill="#65C466"/>
<path d="M40.2656 17.1311L34.2097 7.71072C34.0859 7.51824 33.8726 7.40186 33.6438 7.40186H26.2422C25.8701 7.40186 25.5693 7.70331 25.5693 8.07471V24.8967C25.5693 25.2688 25.8701 25.5695 26.2422 25.5695H28.9337V24.2237H26.915V8.74764H33.2764L39.0269 17.6929V24.2239H35.6624V25.5696H39.6997C40.0718 25.5696 40.3726 25.2688 40.3726 24.8967V17.495C40.3727 17.3665 40.3357 17.2393 40.2656 17.1311Z" fill="#65C466"/>
<path d="M29.6064 16.1492V11.439H34.9895V10.0933H28.9336C28.5615 10.0933 28.2607 10.3947 28.2607 10.7661V16.822C28.2607 17.1941 28.5615 17.4949 28.9336 17.4949H39.0268V16.1491H29.6064V16.1492Z" fill="#65C466"/>
<path d="M26.2423 2.71777H0.672853C0.301455 2.71777 0 3.01923 0 3.39063V24.9228C0 25.2949 0.301455 25.5956 0.672853 25.5956H6.05591V24.2499H1.34578V4.06348H25.5694V24.2499H12.7847V25.5956H26.2423C26.6144 25.5956 26.9151 25.2949 26.9151 24.9228V3.39063C26.9151 3.01923 26.6144 2.71777 26.2423 2.71777Z" fill="#65C466"/>
<path d="M4.71013 21.532H0.672852V22.8778H4.71013V21.532Z" fill="#65C466"/>
<path d="M25.5698 21.532H14.1309V22.8778H25.5698V21.532Z" fill="#65C466"/>
<path d="M39.7003 21.532H37.0088V22.8778H39.7003V21.532Z" fill="#65C466"/>
<path d="M26.2422 5.38306H2.69141V6.72884H26.2422V5.38306Z" fill="#65C466"/>
<path d="M10.0938 24.2234H8.74805V25.5692H10.0938V24.2234Z" fill="#65C466"/>
<path d="M32.9708 24.2234H31.625V25.5692H32.9708V24.2234Z" fill="#65C466"/>
<path d="M12.1117 0H2.69141V1.34578H12.1117V0Z" fill="#65C466"/>
<path d="M1.34578 0H0V1.34578H1.34578V0Z" fill="#65C466"/>
</svg>
